HIERARCHY
ROOT Hips
{
  OFFSET 0.000 66.072 0.000
  CHANNELS 6 Xposition Yposition Zposition Zrotation Xrotation Yrotation
  JOINT LeftUpLeg
  {
    OFFSET 7.833 0.924 3.041
    CHANNELS 6 Xposition Yposition Zposition Zrotation Xrotation Yrotation
    JOINT LeftLeg
    {
      OFFSET 0.000 -35.763 0.000
      CHANNELS 6 Xposition Yposition Zposition Zrotation Xrotation Yrotation
      JOINT LeftFoot
      {
        OFFSET 0.000 -31.232 0.000
        CHANNELS 6 Xposition Yposition Zposition Zrotation Xrotation Yrotation
        End Site
        {
          OFFSET 0.000 0.000 9.617
        }
      }
    }
  }
  JOINT RightUpLeg
  {
    OFFSET -7.833 0.924 3.041
    CHANNELS 6 Xposition Yposition Zposition Zrotation Xrotation Yrotation
    JOINT RightLeg
    {
      OFFSET 0.000 -35.763 0.000
      CHANNELS 6 Xposition Yposition Zposition Zrotation Xrotation Yrotation
      JOINT RightFoot
      {
        OFFSET 0.000 -31.232 0.000
        CHANNELS 6 Xposition Yposition Zposition Zrotation Xrotation Yrotation
        End Site
        {
          OFFSET 0.000 0.000 9.617
        }
      }
    }
  }
  JOINT Spine
  {
    OFFSET 0.000 31.096 0.000
    CHANNELS 6 Xposition Yposition Zposition Zrotation Xrotation Yrotation
    JOINT Spine1
    {
      OFFSET 0.000 22.833 0.000
      CHANNELS 6 Xposition Yposition Zposition Zrotation Xrotation Yrotation
      JOINT LeftShoulder
      {
        OFFSET 1.777 -0.397 0.052
        CHANNELS 6 Xposition Yposition Zposition Zrotation Xrotation Yrotation
        JOINT LeftArm
        {
          OFFSET 16.478 0.000 0.000
          CHANNELS 6 Xposition Yposition Zposition Zrotation Xrotation Yrotation
          JOINT LeftForeArm
          {
            OFFSET 21.053 0.000 0.000
            CHANNELS 6 Xposition Yposition Zposition Zrotation Xrotation Yrotation
            JOINT LeftHand
            {
              OFFSET 23.291 0.000 0.000
              CHANNELS 6 Xposition Yposition Zposition Zrotation Xrotation Yrotation
              JOINT LeftHandThumb1
              {
                OFFSET 4.877 -1.044 3.608
                CHANNELS 6 Xposition Yposition Zposition Zrotation Xrotation Yrotation
                JOINT LeftHandThumb2
                {
                  OFFSET 2.665 -0.000 -0.000
                  CHANNELS 6 Xposition Yposition Zposition Zrotation Xrotation Yrotation
                  JOINT LeftHandThumb3
                  {
                    OFFSET 2.543 0.000 -0.000
                    CHANNELS 6 Xposition Yposition Zposition Zrotation Xrotation Yrotation
                    End Site
                    {
                      OFFSET 2.667 -0.000 0.000
                    }
                  }
                }
              }
              JOINT LeftHandIndex1
              {
                OFFSET 9.232 -0.301 2.144
                CHANNELS 6 Xposition Yposition Zposition Zrotation Xrotation Yrotation
                JOINT LeftHandIndex2
                {
                  OFFSET 4.225 0.000 0.000
                  CHANNELS 6 Xposition Yposition Zposition Zrotation Xrotation Yrotation
                  JOINT LeftHandIndex3
                  {
                    OFFSET 2.654 0.000 -0.000
                    CHANNELS 6 Xposition Yposition Zposition Zrotation Xrotation Yrotation
                    End Site
                    {
                      OFFSET 1.958 0.000 -0.000
                    }
                  }
                }
              }
              JOINT LeftHandMiddle1
              {
                OFFSET 8.920 -0.000 0.000
                CHANNELS 6 Xposition Yposition Zposition Zrotation Xrotation Yrotation
                JOINT LeftHandMiddle2
                {
                  OFFSET 4.863 -0.000 0.000
                  CHANNELS 6 Xposition Yposition Zposition Zrotation Xrotation Yrotation
                  JOINT LeftHandMiddle3
                  {
                    OFFSET 2.765 -0.000 0.000
                    CHANNELS 6 Xposition Yposition Zposition Zrotation Xrotation Yrotation
                    End Site
                    {
                      OFFSET 2.006 0.000 0.000
                    }
                  }
                }
              }
              JOINT LeftHandRing1
              {
                OFFSET 8.689 -0.126 -2.087
                CHANNELS 6 Xposition Yposition Zposition Zrotation Xrotation Yrotation
                JOINT LeftHandRing2
                {
                  OFFSET 4.538 0.000 0.000
                  CHANNELS 6 Xposition Yposition Zposition Zrotation Xrotation Yrotation
                  JOINT LeftHandRing3
                  {
                    OFFSET 2.305 0.000 -0.000
                    CHANNELS 6 Xposition Yposition Zposition Zrotation Xrotation Yrotation
                    End Site
                    {
                      OFFSET 1.923 0.000 -0.000
                    }
                  }
                }
              }
              JOINT LeftHandPinky1
              {
                OFFSET 8.391 -0.817 -3.758
                CHANNELS 6 Xposition Yposition Zposition Zrotation Xrotation Yrotation
                JOINT LeftHandPinky2
                {
                  OFFSET 3.044 0.000 0.000
                  CHANNELS 6 Xposition Yposition Zposition Zrotation Xrotation Yrotation
                  JOINT LeftHandPinky3
                  {
                    OFFSET 1.975 0.000 0.000
                    CHANNELS 6 Xposition Yposition Zposition Zrotation Xrotation Yrotation
                    End Site
                    {
                      OFFSET 1.667 0.000 0.000
                    }
                  }
                }
              }
            }
          }
        }
      }
      JOINT RightShoulder
      {
        OFFSET -1.777 -0.397 0.052
        CHANNELS 6 Xposition Yposition Zposition Zrotation Xrotation Yrotation
        JOINT RightArm
        {
          OFFSET -16.478 0.000 0.000
          CHANNELS 6 Xposition Yposition Zposition Zrotation Xrotation Yrotation
          JOINT RightForeArm
          {
            OFFSET -21.053 0.000 0.000
            CHANNELS 6 Xposition Yposition Zposition Zrotation Xrotation Yrotation
            JOINT RightHand
            {
              OFFSET -23.291 0.000 0.000
              CHANNELS 6 Xposition Yposition Zposition Zrotation Xrotation Yrotation
              JOINT RightHandThumb1
              {
                OFFSET -4.877 -1.044 3.608
                CHANNELS 6 Xposition Yposition Zposition Zrotation Xrotation Yrotation
                JOINT RightHandThumb2
                {
                  OFFSET -2.665 -0.000 -0.000
                  CHANNELS 6 Xposition Yposition Zposition Zrotation Xrotation Yrotation
                  JOINT RightHandThumb3
                  {
                    OFFSET -2.543 0.000 0.000
                    CHANNELS 6 Xposition Yposition Zposition Zrotation Xrotation Yrotation
                    End Site
                    {
                      OFFSET -2.667 -0.000 -0.000
                    }
                  }
                }
              }
              JOINT RightHandIndex1
              {
                OFFSET -9.232 -0.301 2.144
                CHANNELS 6 Xposition Yposition Zposition Zrotation Xrotation Yrotation
                JOINT RightHandIndex2
                {
                  OFFSET -4.225 -0.000 0.000
                  CHANNELS 6 Xposition Yposition Zposition Zrotation Xrotation Yrotation
                  JOINT RightHandIndex3
                  {
                    OFFSET -2.654 0.000 0.000
                    CHANNELS 6 Xposition Yposition Zposition Zrotation Xrotation Yrotation
                    End Site
                    {
                      OFFSET -1.958 0.000 0.000
                    }
                  }
                }
              }
              JOINT RightHandMiddle1
              {
                OFFSET -8.920 -0.000 0.000
                CHANNELS 6 Xposition Yposition Zposition Zrotation Xrotation Yrotation
                JOINT RightHandMiddle2
                {
                  OFFSET -4.863 -0.000 -0.000
                  CHANNELS 6 Xposition Yposition Zposition Zrotation Xrotation Yrotation
                  JOINT RightHandMiddle3
                  {
                    OFFSET -2.765 -0.000 0.000
                    CHANNELS 6 Xposition Yposition Zposition Zrotation Xrotation Yrotation
                    End Site
                    {
                      OFFSET -2.006 0.000 0.000
                    }
                  }
                }
              }
              JOINT RightHandRing1
              {
                OFFSET -8.689 -0.126 -2.087
                CHANNELS 6 Xposition Yposition Zposition Zrotation Xrotation Yrotation
                JOINT RightHandRing2
                {
                  OFFSET -4.538 0.000 0.000
                  CHANNELS 6 Xposition Yposition Zposition Zrotation Xrotation Yrotation
                  JOINT RightHandRing3
                  {
                    OFFSET -2.305 -0.000 0.000
                    CHANNELS 6 Xposition Yposition Zposition Zrotation Xrotation Yrotation
                    End Site
                    {
                      OFFSET -1.923 0.000 0.000
                    }
                  }
                }
              }
              JOINT RightHandPinky1
              {
                OFFSET -8.391 -0.817 -3.758
                CHANNELS 6 Xposition Yposition Zposition Zrotation Xrotation Yrotation
                JOINT RightHandPinky2
                {
                  OFFSET -3.044 -0.000 0.000
                  CHANNELS 6 Xposition Yposition Zposition Zrotation Xrotation Yrotation
                  JOINT RightHandPinky3
                  {
                    OFFSET -1.975 0.000 0.000
                    CHANNELS 6 Xposition Yposition Zposition Zrotation Xrotation Yrotation
                    End Site
                    {
                      OFFSET -1.667 -0.000 -0.000
                    }
                  }
                }
              }
            }
          }
        }
      }
      JOINT Neck
      {
        OFFSET 0.000 0.747 0.000
        CHANNELS 6 Xposition Yposition Zposition Zrotation Xrotation Yrotation
        JOINT Head
        {
          OFFSET 0.000 6.750 0.000
          CHANNELS 6 Xposition Yposition Zposition Zrotation Xrotation Yrotation
          End Site
          {
            OFFSET 0.000 13.698 0.000
          }
        }
      }
    }
  }
}
MOTION
Frames:	4
Frame Time:	0.033333
-3.01248 77.52308 -238.03387 -1.09193 0.00804 -2.68064 7.86860 0.67129 3.40433 0.29709 6.87976 -9.65743 0.00076 -37.10155 0.00314 7.52186 -5.79316 20.95209 -0.00500 -31.41670 -0.00393 -2.34380 35.91141 3.98106 -7.45512 0.18937 3.40330 3.76265 5.03035 -10.22585 0.00246 -38.05513 0.00069 -7.86202 -11.86397 -7.36927 -0.00293 -30.63518 0.00480 -0.49573 38.82252 0.78826 0.00439 30.89319 -0.00130 -0.32606 1.99958 0.25791 0.00247 22.65119 0.00338 -0.12507 2.42092 0.35901 1.79003 -0.29966 0.07980 -9.61389 0.45477 -2.71319 16.33861 0.00073 -0.00396 -68.95866 4.01710 -6.27152 25.11243 -0.00709 0.00010 -10.48148 0.74223 -13.41012 23.52707 -0.00048 0.00643 -9.50161 -1.91917 -5.79068 4.87701 -1.04401 3.60802 -41.57595 -8.45725 -7.72882 2.66500 -0.00001 -0.00001 0.00000 0.00000 5.00000 2.54300 0.00001 -0.00001 0.00000 0.00000 60.00000 9.23200 -0.30101 2.14400 -80.00000 -0.00000 0.00000 4.22499 0.00000 0.00006 -90.00000 -0.00000 -0.00000 2.65402 0.00000 -0.00002 -69.99999 0.00000 0.00000 8.92000 -0.00000 0.00001 -80.00000 -0.00000 0.00000 4.86300 -0.00001 0.00001 -90.00000 -0.00000 -0.00000 2.76500 -0.00000 0.00002 -69.99999 0.00000 0.00000 8.68900 -0.12600 -2.08699 -80.00000 -0.00000 0.00000 4.53800 0.00001 0.00000 -90.00000 -0.00000 -0.00000 2.30501 0.00000 -0.00002 -69.99999 0.00000 0.00000 8.39100 -0.81701 -3.75799 -80.00000 -0.00000 0.00000 3.04400 0.00000 0.00000 -90.00000 -0.00000 -0.00000 1.97501 0.00000 0.00000 -69.99999 0.00000 0.00000 -1.78460 -0.55455 0.08007 17.39209 0.82070 2.63446 -16.82385 -0.00902 -0.00307 66.38152 2.73561 3.25212 -24.97793 0.00038 -0.00323 5.23514 7.84403 17.94084 -23.92633 -0.00435 0.00119 13.31154 18.02711 4.58188 -4.87700 -1.04402 3.60800 40.90541 11.75460 -3.91033 -2.66500 -0.00002 -0.00002 0.00000 0.00000 -5.00000 -2.54300 0.00002 0.00001 0.00002 0.00000 -60.00000 -9.23201 -0.30102 2.14401 -2.00000 -0.00000 -0.00000 -4.22499 -0.00001 0.00000 -2.00000 0.00000 0.00000 -2.65403 0.00000 0.00000 -2.00000 -0.00000 -0.00000 -8.92000 -0.00001 0.00000 80.00000 -0.00000 0.00001 -4.86301 -0.00001 -0.00001 90.00000 -0.00000 0.00001 -2.76499 -0.00001 0.00001 70.00000 -0.00000 0.00001 -8.68900 -0.12600 -2.08699 80.00000 -0.00000 0.00001 -4.53799 0.00000 0.00000 90.00000 -0.00000 0.00001 -2.30501 -0.00001 0.00001 70.00000 -0.00000 0.00001 -8.39100 -0.81701 -3.75799 -2.00000 -0.00000 -0.00000 -3.04399 -0.00001 0.00000 -2.00000 0.00000 0.00000 -1.97500 0.00000 0.00000 -2.00000 -0.00000 -0.00000 0.00001 0.74113 0.00056 0.00003 -0.00004 0.00000 -0.00142 6.66795 0.00207 6.28333 19.05085 -9.41052 
-2.98780 77.52898 -238.01624 -1.07009 -0.00772 -2.54465 7.85775 0.66490 3.40433 0.30891 6.83459 -9.46461 0.00076 -37.14281 0.00314 7.37222 -5.75430 20.68762 -0.00500 -31.44533 -0.00393 -2.35053 35.47832 4.03459 -7.46166 0.18937 3.40330 3.67814 5.00988 -10.21348 0.00246 -37.99998 0.00069 -7.78718 -11.70099 -7.49294 -0.00293 -30.68482 0.00480 -0.48072 38.75414 0.76545 0.00439 30.88277 -0.00130 -0.32533 1.99958 0.23701 0.00247 22.65119 0.00338 -0.09259 2.39081 0.33571 1.79003 -0.29966 0.07980 -9.59090 0.45476 -2.73187 16.33861 0.00073 -0.00396 -69.05719 3.98786 -6.25139 25.11243 -0.00709 0.00010 -10.55891 0.72901 -13.63774 23.52861 -0.00048 0.00643 -9.73088 -1.89986 -6.32279 4.87701 -1.04401 3.60802 -41.57595 -8.45725 -7.72882 2.66500 -0.00001 -0.00001 0.00000 0.00000 5.00000 2.54300 0.00001 -0.00001 0.00000 0.00000 60.00000 9.23200 -0.30101 2.14400 -80.00000 -0.00000 0.00000 4.22499 0.00000 0.00006 -90.00000 -0.00000 -0.00000 2.65402 0.00000 -0.00002 -69.99999 0.00000 0.00000 8.92000 -0.00000 0.00001 -80.00000 -0.00000 0.00000 4.86300 -0.00001 0.00001 -90.00000 -0.00000 -0.00000 2.76500 -0.00000 0.00002 -69.99999 0.00000 0.00000 8.68900 -0.12600 -2.08699 -80.00000 -0.00000 0.00000 4.53800 0.00001 0.00000 -90.00000 -0.00000 -0.00000 2.30501 0.00000 -0.00002 -69.99999 0.00000 0.00000 8.39100 -0.81701 -3.75799 -80.00000 -0.00000 0.00000 3.04400 0.00000 0.00000 -90.00000 -0.00000 -0.00000 1.97501 0.00000 0.00000 -69.99999 0.00000 0.00000 -1.78460 -0.55455 0.08007 17.31499 0.82069 2.65548 -16.80746 -0.00902 -0.00307 66.42693 2.77392 3.18537 -24.97793 0.00038 -0.00323 5.22180 7.84244 17.97711 -23.97477 -0.00435 0.00119 12.72209 17.76159 5.64650 -4.87700 -1.04402 3.60800 40.90541 11.75460 -3.91033 -2.66500 -0.00002 -0.00002 0.00000 0.00000 -5.00000 -2.54300 0.00002 0.00001 0.00002 0.00000 -60.00000 -9.23201 -0.30102 2.14401 -2.00000 -0.00000 -0.00000 -4.22499 -0.00001 0.00000 -2.00000 0.00000 0.00000 -2.65403 0.00000 0.00000 -2.00000 -0.00000 -0.00000 -8.92000 -0.00001 0.00000 80.00000 -0.00000 0.00001 -4.86301 -0.00001 -0.00001 90.00000 -0.00000 0.00001 -2.76499 -0.00001 0.00001 70.00000 -0.00000 0.00001 -8.68900 -0.12600 -2.08699 80.00000 -0.00000 0.00001 -4.53799 0.00000 0.00000 90.00000 -0.00000 0.00001 -2.30501 -0.00001 0.00001 70.00000 -0.00000 0.00001 -8.39100 -0.81701 -3.75799 -2.00000 -0.00000 -0.00000 -3.04399 -0.00001 0.00000 -2.00000 0.00000 0.00000 -1.97500 0.00000 0.00000 -2.00000 -0.00000 -0.00000 0.00001 0.74113 0.00056 0.00003 -0.00004 0.00000 -0.00142 6.66795 0.00207 6.12279 19.06926 -9.28860 
-2.97051 77.53480 -238.00357 -1.05479 -0.02008 -2.44752 7.84967 0.65972 3.40433 0.28989 6.79054 -9.31805 0.00076 -37.16185 0.00314 7.30990 -5.68752 20.51474 -0.00500 -31.47330 -0.00393 -2.35546 35.17179 4.07358 -7.46633 0.18937 3.40330 3.63317 4.99152 -10.13799 0.00246 -37.96454 0.00069 -7.78332 -11.58340 -7.64342 -0.00293 -30.74594 0.00480 -0.45015 38.55429 0.71974 0.00439 30.87458 -0.00130 -0.32106 1.99958 0.22828 0.00247 22.65119 0.00338 -0.07035 2.36742 0.32582 1.79003 -0.29966 0.07980 -9.55752 0.45476 -2.72637 16.33861 0.00073 -0.00396 -69.14094 3.99358 -6.26167 25.11243 -0.00709 0.00010 -10.63882 0.72983 -13.82310 23.54395 -0.00048 0.00643 -9.77682 -1.94456 -6.85788 4.87701 -1.04401 3.60802 -41.57595 -8.45725 -7.72882 2.66500 -0.00001 -0.00001 0.00000 0.00000 5.00000 2.54300 0.00001 -0.00001 0.00000 0.00000 60.00000 9.23200 -0.30101 2.14400 -80.00000 -0.00000 0.00000 4.22499 0.00000 0.00006 -90.00000 -0.00000 -0.00000 2.65402 0.00000 -0.00002 -69.99999 0.00000 0.00000 8.92000 -0.00000 0.00001 -80.00000 -0.00000 0.00000 4.86300 -0.00001 0.00001 -90.00000 -0.00000 -0.00000 2.76500 -0.00000 0.00002 -69.99999 0.00000 0.00000 8.68900 -0.12600 -2.08699 -80.00000 -0.00000 0.00000 4.53800 0.00001 0.00000 -90.00000 -0.00000 -0.00000 2.30501 0.00000 -0.00002 -69.99999 0.00000 0.00000 8.39100 -0.81701 -3.75799 -80.00000 -0.00000 0.00000 3.04400 0.00000 0.00000 -90.00000 -0.00000 -0.00000 1.97501 0.00000 0.00000 -69.99999 0.00000 0.00000 -1.78460 -0.55455 0.08007 17.26210 0.82069 2.65177 -16.79681 -0.00902 -0.00307 66.46508 2.81800 3.16445 -24.97793 0.00038 -0.00323 5.18974 7.84065 18.01789 -24.00327 -0.00435 0.00447 12.25955 17.58903 6.67518 -4.87700 -1.04402 3.60800 40.90541 11.75460 -3.91033 -2.66500 -0.00002 -0.00002 0.00000 0.00000 -5.00000 -2.54300 0.00002 0.00001 0.00002 0.00000 -60.00000 -9.23201 -0.30102 2.14401 -2.00000 -0.00000 -0.00000 -4.22499 -0.00001 0.00000 -2.00000 0.00000 0.00000 -2.65403 0.00000 0.00000 -2.00000 -0.00000 -0.00000 -8.92000 -0.00001 0.00000 80.00000 -0.00000 0.00001 -4.86301 -0.00001 -0.00001 90.00000 -0.00000 0.00001 -2.76499 -0.00001 0.00001 70.00000 -0.00000 0.00001 -8.68900 -0.12600 -2.08699 80.00000 -0.00000 0.00001 -4.53799 0.00000 0.00000 90.00000 -0.00000 0.00001 -2.30501 -0.00001 0.00001 70.00000 -0.00000 0.00001 -8.39100 -0.81701 -3.75799 -2.00000 -0.00000 -0.00000 -3.04399 -0.00001 0.00000 -2.00000 0.00000 0.00000 -1.97500 0.00000 0.00000 -2.00000 -0.00000 -0.00000 0.00001 0.74113 0.00056 0.00003 -0.00004 0.00000 -0.00142 6.66684 0.00207 6.01638 19.07611 -9.29169 
-2.95564 77.54260 -237.99051 -1.03984 -0.03540 -2.36483 7.84299 0.65505 3.40433 0.31740 6.73619 -9.08523 0.00076 -37.02892 0.00314 7.11174 -5.58414 20.28083 -0.00500 -31.63936 -0.00393 -2.38327 34.86448 4.15326 -7.47084 0.18961 3.40330 3.58772 4.98750 -10.06045 0.00246 -37.92957 0.00069 -7.75970 -11.49288 -7.78803 -0.00293 -30.80970 0.00480 -0.39045 38.36180 0.62661 0.00439 30.86534 -0.00130 -0.31480 2.00257 0.21635 0.00247 22.64873 0.00338 -0.04763 2.34324 0.31228 1.79003 -0.29966 0.07980 -9.53643 0.45476 -2.72443 16.33861 0.00073 -0.00396 -69.20541 3.98240 -6.25486 25.11243 -0.00709 0.00010 -10.72739 0.75270 -14.00506 23.56358 -0.00048 0.00669 -9.81919 -1.98618 -6.91914 4.87701 -1.04401 3.60802 -41.57595 -8.45725 -7.72882 2.66500 -0.00001 -0.00001 0.00000 0.00000 5.00000 2.54300 0.00001 -0.00001 0.00000 0.00000 60.00000 9.23200 -0.30101 2.14400 -80.00000 -0.00000 0.00000 4.22499 0.00000 0.00006 -90.00000 -0.00000 -0.00000 2.65402 0.00000 -0.00002 -69.99999 0.00000 0.00000 8.92000 -0.00000 0.00001 -80.00000 -0.00000 0.00000 4.86300 -0.00001 0.00001 -90.00000 -0.00000 -0.00000 2.76500 -0.00000 0.00002 -69.99999 0.00000 0.00000 8.68900 -0.12600 -2.08699 -80.00000 -0.00000 0.00000 4.53800 0.00001 0.00000 -90.00000 -0.00000 -0.00000 2.30501 0.00000 -0.00002 -69.99999 0.00000 0.00000 8.39100 -0.81701 -3.75799 -80.00000 -0.00000 0.00000 3.04400 0.00000 0.00000 -90.00000 -0.00000 -0.00000 1.97501 0.00000 0.00000 -69.99999 0.00000 0.00000 -1.78460 -0.55442 0.08007 17.21058 0.82069 2.65338 -16.78730 -0.00902 -0.00307 66.48931 2.87082 3.16027 -24.97793 0.00038 -0.00323 5.15724 7.84622 18.07344 -24.01419 -0.00435 0.00790 11.79769 17.42755 7.38148 -4.87700 -1.04402 3.60800 40.90541 11.75460 -3.91033 -2.66500 -0.00002 -0.00002 0.00000 0.00000 -5.00000 -2.54300 0.00002 0.00001 0.00002 0.00000 -60.00000 -9.23201 -0.30102 2.14401 -2.00000 -0.00000 -0.00000 -4.22499 -0.00001 0.00000 -2.00000 0.00000 0.00000 -2.65403 0.00000 0.00000 -2.00000 -0.00000 -0.00000 -8.92000 -0.00001 0.00000 80.00000 -0.00000 0.00001 -4.86301 -0.00001 -0.00001 90.00000 -0.00000 0.00001 -2.76499 -0.00001 0.00001 70.00000 -0.00000 0.00001 -8.68900 -0.12600 -2.08699 80.00000 -0.00000 0.00001 -4.53799 0.00000 0.00000 90.00000 -0.00000 0.00001 -2.30501 -0.00001 0.00001 70.00000 -0.00000 0.00001 -8.39100 -0.81701 -3.75799 -2.00000 -0.00000 -0.00000 -3.04399 -0.00001 0.00000 -2.00000 0.00000 0.00000 -1.97500 0.00000 0.00000 -2.00000 -0.00000 -0.00000 0.00001 0.74113 0.00056 0.00003 -0.00004 0.00000 -0.00142 6.66482 0.00207 5.91424 19.10471 -9.27578 
